<svg width="70" height="70" viewBox="0 0 70 70" fill="none" xmlns="http://www.w3.org/2000/svg">
<g id="delivery 2" clip-path="url(#clip0_1_137)">
<g id="Group">
<g id="Group_2">
<g id="Group_3">
<path id="Vector" d="M54.4056 50.782V16.885L3.64648e-08 19.218V53.1149C-0.000136682 53.8916 0.38418 54.6683 1.15295 55.1123L22.7052 67.5554C24.2379 68.4404 26.1264 68.4404 27.6593 67.5554L53.2525 52.7791C54.0213 52.3354 54.4056 51.5587 54.4056 50.782Z" fill="url(#paint0_linear_1_137)"/>
<path id="Vector_2" d="M1.15295 17.221L26.7461 2.44474C28.2789 1.55976 30.1674 1.55976 31.7003 2.44474L53.2525 14.8879C54.7898 15.7755 54.7898 17.9944 53.2525 18.882L27.6593 33.6582C26.1265 34.5432 24.238 34.5432 22.7052 33.6582L1.15295 21.215C-0.384316 20.3274 -0.384316 18.1086 1.15295 17.221Z" fill="url(#paint1_linear_1_137)"/>
<path id="Vector_3" d="M9.45151 12.4298L36.9398 28.3001L44.2314 24.0903L16.7431 8.21997L9.45151 12.4298Z" fill="#DEA861"/>
<g id="Group_4">
<path id="Vector_4" d="M13.8095 9.9115L41.2978 25.7819L39.8695 26.6065L12.3812 10.7362L13.8095 9.9115Z" fill="#CC8241"/>
<path id="Vector_5" d="M36.9398 28.3002V34.322L44.2314 30.1121V24.0903L36.9398 28.3002Z" fill="#CC8241"/>
</g>
</g>
</g>
<g id="Group_5">
<path id="Vector_6" d="M65.6811 28.9471L65.6817 28.9457L60.0059 25.6782L60.0054 25.679C57.7649 24.4917 54.8868 24.6608 51.7468 26.4737C44.6026 30.5984 38.811 41.6644 38.811 51.1902C38.811 56.4273 40.5639 60.1035 43.3274 61.6713L43.3255 61.6755L48.5115 64.6697L48.5168 64.6586C50.7963 66.0211 53.7868 65.9228 57.0641 64.0307C64.2085 59.9059 70 48.84 70 39.3142C70 34.2023 68.3308 30.5758 65.6811 28.9471Z" fill="url(#paint2_linear_1_137)"/>
<path id="Vector_7" d="M67.4185 51.2167C71.7179 41.1263 70.5756 30.9747 64.867 28.5424C59.1585 26.11 51.0455 32.3181 46.7461 42.4085C42.4468 52.4988 43.5891 62.6505 49.2976 65.0828C55.0062 67.5152 63.1192 61.3071 67.4185 51.2167Z" fill="#06DAAE"/>
<g id="Group_6">
<path id="Vector_8" d="M65.1162 46.2017L61.7483 44.2275C61.0647 43.7992 60.1631 43.8012 59.25 43.9262C59.4981 43.6406 59.8137 43.386 60.1805 43.1741C61.3895 42.4762 63.3485 42.2621 64.891 42.5388L66.329 37.679L62.9209 35.6811C62.5667 35.5814 62.1773 35.5276 61.7647 35.5139V34.1727L58.3565 32.1748L55.5846 33.7752V37.8604C52.9166 39.9843 51.2493 43.0867 51.2493 46.1714C51.2493 48.2563 51.9537 49.12 52.9355 49.4036L55.3994 50.8261C56.1208 51.6194 57.2744 51.5999 58.4369 51.4036C58.1193 51.8501 57.664 52.2499 57.1061 52.5722C55.5846 53.4507 53.3126 53.5397 51.8121 52.6829L50.3321 57.5114L53.7402 59.5093C54.2868 59.792 54.9108 59.9606 55.5844 60.017V61.732L58.9925 63.7299L61.7645 62.1295V57.8777C64.3908 55.889 66.3501 52.7569 66.3501 49.3386C66.3501 47.5624 65.8547 46.6413 65.1162 46.2017Z" fill="url(#paint3_linear_1_137)"/>
<g id="Group_7">
<path id="Vector_9" d="M61.7637 57.8777V62.1295L58.9917 63.7299V59.4504C57.0325 60.2202 55.1357 60.2316 53.7394 59.5093L55.2194 54.6809C56.7199 55.5376 58.9918 55.4486 60.5134 54.5702C61.6389 53.9204 62.3476 52.9554 62.3476 51.9273C62.3476 48.6202 54.6566 55.0615 54.6566 48.1696C54.6566 45.0849 56.324 41.9825 58.9918 39.8586V35.7734L61.7638 34.173V38.2304C63.4731 37.4936 65.0987 37.3331 66.3283 37.6793L64.8903 42.5391C63.3478 42.2623 61.3888 42.4764 60.1798 43.1744C59.2628 43.7038 58.6584 44.4974 58.6584 45.3866C58.6584 48.6102 66.3494 42.3358 66.3494 49.3389C66.3492 52.757 64.3899 55.889 61.7637 57.8777Z" fill="#F7E041"/>
</g>
<g id="Group_8">
<path id="Vector_10" d="M55.5836 37.8604L58.9917 39.8583V35.7733L55.5836 33.7753V37.8604Z" fill="#E37A34"/>
<path id="Vector_11" d="M55.2192 54.6809L51.8111 52.683L50.3311 57.5115L53.7392 59.5094L55.2192 54.6809Z" fill="#E37A34"/>
</g>
</g>
</g>
</g>
</g>
<defs>
<linearGradient id="paint0_linear_1_137" x1="20.8339" y1="42.552" x2="28.3075" y2="42.552" gradientUnits="userSpaceOnUse">
<stop stop-color="#CC8241"/>
<stop offset="1" stop-color="#DEA861"/>
</linearGradient>
<linearGradient id="paint1_linear_1_137" x1="12.0563" y1="9.30666" x2="40.0445" y2="25.4657" gradientUnits="userSpaceOnUse">
<stop stop-color="#DEA861"/>
<stop offset="1" stop-color="#EBCBA0"/>
</linearGradient>
<linearGradient id="paint2_linear_1_137" x1="55.283" y1="43.7323" x2="60.5996" y2="34.5237" gradientUnits="userSpaceOnUse">
<stop stop-color="#236568"/>
<stop offset="1" stop-color="#2F878A"/>
</linearGradient>
<linearGradient id="paint3_linear_1_137" x1="60.1609" y1="45.3779" x2="61.82" y2="42.5042" gradientUnits="userSpaceOnUse">
<stop stop-color="#E37A34"/>
<stop offset="1" stop-color="#FFC538"/>
</linearGradient>
<clipPath id="clip0_1_137">
<rect width="70" height="70" fill="white"/>
</clipPath>
</defs>
</svg>
