<svg width="70" height="70" viewBox="0 0 70 70" fill="none" xmlns="http://www.w3.org/2000/svg">
<g id="distance 1" clip-path="url(#clip0_1_96)">
<g id="Group">
<g id="Group_2">
<g id="Group_3">
<path id="Vector" d="M13.8717 31.3496C13.5829 31.3496 13.3005 31.2336 13.0971 31.0301C12.8934 30.8243 12.7776 30.5421 12.7776 30.2554C12.7776 29.9665 12.8934 29.6865 13.0971 29.483C13.3005 29.2794 13.5829 29.1613 13.8717 29.1613C14.1583 29.1613 14.4406 29.2794 14.6441 29.483C14.8478 29.6864 14.9659 29.9687 14.9659 30.2554C14.9659 30.5421 14.8478 30.8244 14.6441 31.0301C14.4406 31.2336 14.1583 31.3496 13.8717 31.3496Z" fill="#7662BD"/>
</g>
<g id="Group_4">
<path id="Vector_2" d="M25.1044 69.9999C24.5002 69.9955 24.0124 69.5032 24.0166 68.8992C24.0188 68.2951 24.5112 67.8072 25.1174 67.8116C25.7213 67.8137 26.207 68.3061 26.2048 68.9123C26.2006 69.5141 25.7125 69.9999 25.1107 69.9999C25.1086 69.9999 25.1066 69.9999 25.1044 69.9999ZM28.402 68.6671C28.2687 68.0786 28.6362 67.492 29.2248 67.3563C29.8135 67.2207 30.4 67.5883 30.5357 68.1791C30.6714 68.7676 30.3038 69.3541 29.7151 69.4899C29.632 69.5074 29.5488 69.5183 29.4678 69.5183C28.9689 69.5185 28.5203 69.1749 28.402 68.6671ZM20.5002 69.4418C19.9136 69.2996 19.5526 68.7087 19.6926 68.12C19.835 67.5336 20.4256 67.1725 21.0144 67.3125C21.6008 67.4547 21.962 68.0456 21.8197 68.6343C21.6994 69.1354 21.2508 69.4724 20.7585 69.4724C20.673 69.4725 20.5876 69.4616 20.5002 69.4418ZM32.6191 67.4374C32.3543 66.8947 32.5774 66.2404 33.1179 65.9734H33.1202C33.6606 65.7064 34.3172 65.9296 34.584 66.4723C34.8509 67.015 34.6257 67.6694 34.085 67.9362C33.9297 68.0128 33.7655 68.05 33.6014 68.05C33.1988 68.0501 32.8094 67.8247 32.6191 67.4374ZM16.1474 67.8422C15.6069 67.5686 15.3924 66.9121 15.6638 66.3716C15.9374 65.8334 16.5938 65.6167 17.1344 65.8881C17.6726 66.1616 17.8893 66.8182 17.6179 67.3586C17.4254 67.7394 17.0403 67.9604 16.6398 67.9604C16.4736 67.9603 16.3049 67.9209 16.1474 67.8422ZM36.4792 65.3387C36.1752 64.8158 36.3544 64.1461 36.8776 63.8419C37.4006 63.5399 38.0679 63.7172 38.3722 64.2402C38.6763 64.7633 38.4968 65.4328 37.9738 65.737C37.8009 65.8354 37.6126 65.8835 37.4267 65.8835C37.0481 65.8837 36.6827 65.6889 36.4792 65.3387ZM12.388 64.6844C12.0598 64.1766 12.2063 63.5005 12.7141 63.1723C13.2216 62.8462 13.9001 62.9928 14.2261 63.5005C14.5543 64.0082 14.4078 64.6844 13.9001 65.0126C13.7164 65.1308 13.5106 65.1878 13.3071 65.1878C12.948 65.1878 12.596 65.0105 12.388 64.6844ZM40.2803 63.1329C39.9783 62.61 40.1555 61.9403 40.6787 61.6383C41.2016 61.3341 41.8712 61.5135 42.1755 62.0366C42.4775 62.5595 42.3 63.227 41.7771 63.5312C41.6043 63.6318 41.4159 63.6799 41.2279 63.6799C40.8516 63.6799 40.4837 63.483 40.2803 63.1329ZM44.0837 60.9293C43.7817 60.4062 43.9588 59.7367 44.4821 59.4347C45.005 59.1305 45.6748 59.3078 45.9767 59.8307C46.2807 60.3537 46.1012 61.0233 45.5783 61.3275C45.4075 61.4261 45.2171 61.4742 45.0313 61.4742C44.6549 61.4742 44.2871 61.2794 44.0837 60.9293ZM12.1495 61.0036C11.5453 60.9708 11.0837 60.4566 11.1142 59.8526C11.1472 59.2486 11.6612 58.7869 12.2653 58.8175C12.8694 58.8503 13.331 59.3645 13.3005 59.9685C13.2699 60.5529 12.7863 61.0058 12.2085 61.0058C12.1888 61.0058 12.1691 61.0036 12.1495 61.0036ZM47.8869 58.7234C47.5828 58.2027 47.76 57.533 48.2831 57.2288C48.8061 56.9268 49.4756 57.1042 49.7799 57.6271C50.0819 58.1502 49.9045 58.8197 49.3815 59.1217C49.2086 59.2223 49.0203 59.2705 48.8344 59.2705C48.4559 59.2705 48.0882 59.0736 47.8869 58.7234ZM51.6881 56.5198C51.3861 55.9969 51.5633 55.3272 52.0865 55.0252C52.6095 54.721 53.2792 54.9005 53.5811 55.4213C53.8852 55.9444 53.7057 56.614 53.1849 56.9181C53.0121 57.0165 52.8216 57.0646 52.6357 57.0646C52.2593 57.0646 51.8915 56.87 51.6881 56.5198ZM13.0599 56.7212C12.5915 56.3404 12.5191 55.6511 12.9 55.1828C13.283 54.7144 13.97 54.6424 14.4406 55.0253C14.9088 55.4061 14.979 56.0954 14.5981 56.5637C14.3817 56.8285 14.0664 56.9663 13.7491 56.9663C13.5063 56.9662 13.2633 56.8875 13.0599 56.7212ZM16.3313 53.8543C16.0293 53.3314 16.2067 52.6617 16.7297 52.3597C17.2526 52.0555 17.9224 52.235 18.2265 52.758C18.5285 53.2811 18.3491 53.9506 17.826 54.2526C17.6531 54.3532 17.4651 54.3992 17.2789 54.3992C16.9025 54.3993 16.5348 54.2046 16.3313 53.8543ZM20.1345 51.6529C19.8325 51.1299 20.012 50.4603 20.535 50.1583C21.058 49.8541 21.7277 50.0336 22.0296 50.5566C22.3316 51.0796 22.1544 51.7493 21.6314 52.0512C21.4586 52.1518 21.2702 52.1977 21.0844 52.1977C20.7057 52.1979 20.3382 52.003 20.1345 51.6529ZM23.9401 49.4516C23.6381 48.9285 23.8153 48.2589 24.3385 47.957C24.8614 47.6528 25.5309 47.8322 25.8329 48.3552C26.1373 48.8782 25.9578 49.5478 25.4348 49.8499C25.2619 49.9505 25.0736 49.9987 24.8878 49.9987C24.509 49.9986 24.1437 49.8016 23.9401 49.4516ZM27.7435 47.25C27.4414 46.7269 27.621 46.0574 28.1439 45.7554C28.6669 45.4512 29.3342 45.6307 29.6385 46.1537C29.9405 46.6766 29.7631 47.3463 29.2381 47.6483C29.0673 47.7489 28.8793 47.797 28.6931 47.797C28.3147 47.7972 27.9469 47.6001 27.7435 47.25ZM31.5489 45.0486C31.2448 44.5256 31.4243 43.856 31.9473 43.554C32.4702 43.2519 33.14 43.4293 33.4419 43.9522C33.746 44.4753 33.5667 45.1448 33.0436 45.4468C32.8707 45.5474 32.6827 45.5956 32.4965 45.5956C32.1179 45.5957 31.7525 45.3987 31.5489 45.0486ZM35.3521 42.8471C35.0501 42.3242 35.2296 41.6545 35.7526 41.3525C36.2758 41.0505 36.9453 41.23 37.2472 41.7508C37.5492 42.2739 37.372 42.9435 36.8491 43.2476C36.6762 43.346 36.4878 43.3941 36.302 43.3941C35.9233 43.3943 35.5558 43.1973 35.3521 42.8471ZM39.1577 40.6457C38.8557 40.1226 39.0329 39.4529 39.5558 39.1511C40.0789 38.8491 40.7486 39.0284 41.0504 39.5493C41.3548 40.0745 41.1753 40.7419 40.6523 41.0461C40.4795 41.1446 40.2911 41.1928 40.1053 41.1928C39.7266 41.1928 39.3591 40.998 39.1577 40.6457ZM42.9611 38.4442C42.6591 37.9211 42.8384 37.2538 43.3615 36.9496C43.8845 36.6476 44.5543 36.8271 44.8561 37.3501C45.1581 37.873 44.9807 38.5405 44.4577 38.8447C44.2848 38.9433 44.0945 38.9914 43.9106 38.9914C43.5323 38.9914 43.1645 38.7944 42.9611 38.4442ZM46.7665 36.2428C46.4645 35.7198 46.6419 35.0524 47.1649 34.7482C47.6878 34.4462 48.3576 34.6257 48.6595 35.1486C48.9636 35.6716 48.7843 36.339 48.2611 36.6432C48.0882 36.7417 47.9002 36.7898 47.714 36.7898C47.3355 36.7899 46.9678 36.5951 46.7665 36.2428ZM50.5697 34.0435C50.2677 33.5184 50.4472 32.8509 50.9702 32.5467C51.4933 32.2447 52.1629 32.4242 52.4648 32.9472C52.7668 33.4703 52.5874 34.1398 52.0644 34.4418C51.8939 34.5424 51.7034 34.5883 51.5173 34.5883C51.141 34.5883 50.7733 34.3937 50.5697 34.0435ZM54.3753 31.8421C54.071 31.3191 54.2505 30.6495 54.7734 30.3453C55.2967 30.0433 55.9662 30.2228 56.268 30.7457C56.5701 31.2687 56.3929 31.9383 55.8699 32.2403C55.6971 32.341 55.5087 32.387 55.3229 32.387C54.9442 32.387 54.5767 32.1922 54.3753 31.8421ZM58.2224 29.6844C57.8065 29.2467 57.824 28.5552 58.2618 28.1395V28.1373C58.7016 27.7215 59.3932 27.7412 59.8091 28.1788C60.2247 28.6165 60.2072 29.3102 59.7695 29.7259C59.5574 29.9273 59.286 30.0258 59.0169 30.0258C58.7257 30.0258 58.4368 29.912 58.2224 29.6844ZM16.7295 28.6055C16.4275 28.0824 16.607 27.4129 17.13 27.1109C17.6529 26.8089 18.3227 26.9884 18.6246 27.5114C18.9266 28.0343 18.7471 28.704 18.2241 29.006C18.0513 29.1046 17.8629 29.1527 17.6771 29.1527C17.2984 29.1527 16.9309 28.9557 16.7295 28.6055ZM20.535 26.4085C20.233 25.8832 20.4125 25.2159 20.9354 24.9139C21.4586 24.6118 22.1281 24.7892 22.43 25.3121C22.732 25.8373 22.5527 26.5069 22.0296 26.8089C21.8568 26.9075 21.6708 26.9556 21.4849 26.9556C21.1062 26.9556 20.7387 26.7586 20.535 26.4085ZM60.8659 26.2028C60.2705 26.0957 59.8766 25.5266 59.9819 24.9314C60.0889 24.3383 60.6581 23.9422 61.251 24.0473C61.8462 24.1545 62.2424 24.7235 62.1372 25.3188C62.0409 25.8483 61.5793 26.2203 61.0606 26.2203C60.9971 26.2202 60.9315 26.2136 60.8659 26.2028ZM24.3427 24.2092C24.0407 23.6863 24.2202 23.0166 24.7432 22.7146C25.2661 22.4126 25.9359 22.5921 26.2378 23.115C26.5398 23.638 26.3603 24.3076 25.8373 24.6097C25.6644 24.7103 25.4761 24.7562 25.2902 24.7562C24.9116 24.7562 24.5441 24.5615 24.3427 24.2092ZM28.1481 22.0121C27.8461 21.4892 28.0256 20.8195 28.5486 20.5175C29.0718 20.2155 29.7413 20.395 30.0432 20.918C30.3452 21.4411 30.1658 22.1106 29.6428 22.4126C29.4699 22.5132 29.284 22.5591 29.0981 22.5591C28.7194 22.5591 28.3519 22.3623 28.1481 22.0121ZM59.5047 21.3075C59.2444 20.7605 59.4785 20.1083 60.0234 19.8479C60.5706 19.5896 61.2227 19.8216 61.4809 20.3686C61.739 20.9136 61.5071 21.5656 60.9621 21.8261C60.8113 21.8983 60.6514 21.9311 60.4939 21.9311C60.0847 21.9312 59.6908 21.7014 59.5047 21.3075ZM31.9559 19.8151C31.6539 19.2921 31.8334 18.6225 32.3563 18.3205C32.8793 18.0184 33.5491 18.198 33.851 18.7209C34.153 19.244 33.9735 19.9136 33.4505 20.2155C33.2776 20.314 33.0893 20.3621 32.9034 20.3621C32.5248 20.3621 32.1573 20.1652 31.9559 19.8151ZM56.9642 18.6553C56.4411 18.3533 56.2618 17.6836 56.5638 17.1607C56.8658 16.6376 57.5353 16.4582 58.0584 16.7602C58.5813 17.0622 58.7608 17.7319 58.4588 18.2548C58.2551 18.605 57.8876 18.8018 57.5112 18.8018C57.3251 18.8018 57.137 18.7537 56.9642 18.6553ZM35.7613 17.618C35.4593 17.0929 35.6388 16.4254 36.1618 16.1234C36.685 15.8214 37.3545 15.9987 37.6564 16.5216C37.9584 17.0468 37.779 17.7142 37.2559 18.0163C37.0831 18.1169 36.895 18.165 36.7089 18.165C36.3325 18.165 35.965 17.9681 35.7613 17.618ZM53.209 16.6988C52.6486 16.4756 52.3751 15.8389 52.6006 15.2764C52.8238 14.7163 53.4605 14.4427 54.0208 14.668H54.023C54.5833 14.8913 54.8545 15.5281 54.6314 16.0883C54.4606 16.5171 54.0492 16.7776 53.6158 16.7776C53.4803 16.7777 53.3423 16.7513 53.209 16.6988ZM39.6589 15.5872C39.4728 15.0116 39.788 14.3944 40.3636 14.2085C40.9369 14.0224 41.5541 14.3376 41.7421 14.9132C41.9258 15.4886 41.6108 16.1036 41.0374 16.2918C40.9236 16.3268 40.812 16.3443 40.7004 16.3443C40.2387 16.3443 39.8097 16.0489 39.6589 15.5872ZM49.2195 15.6178C48.6222 15.5281 48.2108 14.9722 48.3006 14.3749C48.3902 13.7752 48.9484 13.3639 49.5457 13.4537C50.1432 13.5434 50.5546 14.1015 50.4649 14.6988C50.3839 15.2416 49.9157 15.6311 49.3837 15.6311C49.329 15.6309 49.2742 15.6266 49.2195 15.6178ZM43.9085 14.4799C43.8604 13.8759 44.3069 13.3485 44.9108 13.2982C45.5127 13.2501 46.04 13.6965 46.0903 14.3005C46.1407 14.9024 45.6919 15.4297 45.0902 15.4801C45.0596 15.4823 45.0291 15.4845 44.9983 15.4845C44.436 15.4844 43.9567 15.0511 43.9085 14.4799Z" fill="#7662BD"/>
</g>
<g id="Group_5">
<path id="Vector_3" d="M56.4522 54.8523C56.1654 54.8523 55.883 54.7341 55.6775 54.5306C55.4738 54.327 55.358 54.0448 55.358 53.7581C55.358 53.4692 55.4738 53.1869 55.6775 52.9834C55.8832 52.78 56.1654 52.6639 56.4522 52.6639C56.7409 52.6639 57.0233 52.7799 57.2267 52.9834C57.4304 53.1869 57.5464 53.4692 57.5464 53.7581C57.5464 54.0448 57.4303 54.327 57.2267 54.5306C57.0231 54.7341 56.7408 54.8523 56.4522 54.8523Z" fill="#7662BD"/>
</g>
</g>
<path id="Vector_4" d="M14.339 34.6529C18.3294 34.1667 21.3412 31.9425 21.0661 29.685C20.791 27.4275 17.3332 25.9916 13.3429 26.4779C9.35258 26.9641 6.34079 29.1883 6.61587 31.4458C6.89095 33.7033 10.3487 35.1391 14.339 34.6529Z" fill="#7662BD"/>
<g id="Group_6">
<path id="Vector_5" d="M20.2226 5.70026L20.9766 2.57296L17.7801 0.727393C16.2411 -0.33915 14.127 -0.275849 11.8104 1.20099C7.60812 3.88026 4.21476 10.4285 4.07954 16.1125C4.02076 18.585 4.56954 20.531 5.53683 21.8164L5.53546 21.8186L10.7089 28.4337C10.8021 28.5528 10.9082 28.6419 11.0238 28.7037L14.2304 30.555L17.267 17.9597L18.8372 14.1388L18.8359 14.1383C19.756 11.8532 20.2974 9.40753 20.2974 7.10464C20.2974 6.61341 20.2702 6.14665 20.2226 5.70026Z" fill="url(#paint0_linear_1_96)"/>
<path id="Vector_6" d="M23.4593 8.9266C23.4593 2.78752 19.623 0.0581993 14.9724 3.02308C10.7702 5.70222 7.37669 12.2505 7.24147 17.9344C7.18268 20.407 7.73147 22.3529 8.69876 23.6384L8.69739 23.6405L13.871 30.2557C14.5968 31.1837 16.0999 30.316 16.8257 28.5497L21.9993 15.9608L21.9979 15.9602C22.9179 13.6751 23.4593 11.2295 23.4593 8.9266Z" fill="url(#paint1_linear_1_96)"/>
<path id="Vector_7" d="M21.2702 7.43447L18.884 6.06072L18.8839 6.06113C17.942 5.56197 16.7321 5.63306 15.4119 6.39527C12.4085 8.12928 9.97363 12.7814 9.97363 16.786C9.97363 18.9878 10.7105 20.5332 11.8724 21.1923L11.8716 21.1941L14.0518 22.4529L21.2702 7.43447Z" fill="url(#paint2_linear_1_96)"/>
<path id="Vector_8" d="M21.9983 16.794C23.8058 12.552 23.3256 8.28424 20.9257 7.26168C18.5258 6.23913 15.1151 8.84901 13.3076 13.091C11.5002 17.333 11.9804 21.6008 14.3803 22.6234C16.7802 23.6459 20.1909 21.036 21.9983 16.794Z" fill="#E9E5F6"/>
</g>
<path id="Vector_9" d="M56.8193 58.3234C60.8096 57.8372 63.8214 55.613 63.5464 53.3555C63.2713 51.0981 59.8135 49.6622 55.8232 50.1484C51.8329 50.6346 48.8211 52.8589 49.0962 55.1163C49.3712 57.3738 52.829 58.8097 56.8193 58.3234Z" fill="#7662BD"/>
<g id="Group_7">
<path id="Vector_10" d="M62.688 29.3633L63.442 26.236L60.2455 24.3906C58.7065 23.3241 56.5924 23.3874 54.2758 24.8642C50.0735 27.5433 46.6802 34.0916 46.5449 39.7756C46.4861 42.2481 47.0349 44.194 48.0022 45.4795L48.0009 45.4817L53.1743 52.0968C53.2674 52.2159 53.3736 52.305 53.489 52.3668L56.6956 54.2181L59.7324 41.6226L61.3026 37.8018L61.3013 37.8012C62.2214 35.5161 62.7628 33.0705 62.7628 30.7676C62.7628 30.2765 62.7356 29.8097 62.688 29.3633Z" fill="url(#paint3_linear_1_96)"/>
<path id="Vector_11" d="M65.9248 32.5898C65.9248 26.4507 62.0884 23.7214 57.4378 26.6863C53.2356 29.3654 49.8421 35.9137 49.7069 41.5977C49.6481 44.0702 50.1969 46.0161 51.1642 47.3016L51.1628 47.3038L56.3364 53.9189C57.0623 54.8469 58.5653 53.9792 59.2912 52.2129L64.4647 39.624L64.4634 39.6234C65.3832 37.3382 65.9248 34.8926 65.9248 32.5898Z" fill="url(#paint4_linear_1_96)"/>
<path id="Vector_12" d="M63.7355 31.0976L61.3494 29.7238L61.3493 29.7242C60.4074 29.2251 59.1974 29.2962 57.8773 30.0584C54.8739 31.7924 52.439 36.4445 52.439 40.4491C52.439 42.6508 53.1759 44.1963 54.3376 44.8554L54.3368 44.8572L56.5171 46.116L63.7355 31.0976Z" fill="url(#paint5_linear_1_96)"/>
<path id="Vector_13" d="M64.4791 40.4744C66.2866 36.2324 65.8063 31.9647 63.4065 30.9421C61.0066 29.9195 57.5959 32.5294 55.7884 36.7714C53.9809 41.0134 54.4612 45.2812 56.8611 46.3038C59.2609 47.3263 62.6717 44.7165 64.4791 40.4744Z" fill="#E9E5F6"/>
</g>
</g>
</g>
<defs>
<linearGradient id="paint0_linear_1_96" x1="11.7024" y1="16.6343" x2="17.3526" y2="6.84802" gradientUnits="userSpaceOnUse">
<stop stop-color="#AB2C37"/>
<stop offset="1" stop-color="#FF7A85"/>
</linearGradient>
<linearGradient id="paint1_linear_1_96" x1="7.23723" y1="21.2886" x2="27.1121" y2="21.2886" gradientUnits="userSpaceOnUse">
<stop stop-color="#FF4757"/>
<stop offset="1" stop-color="#FF7A85"/>
</linearGradient>
<linearGradient id="paint2_linear_1_96" x1="15.1015" y1="12.6131" x2="17.3366" y2="8.74191" gradientUnits="userSpaceOnUse">
<stop stop-color="#C5BAEB"/>
<stop offset="1" stop-color="#D7D1EB"/>
</linearGradient>
<linearGradient id="paint3_linear_1_96" x1="54.168" y1="40.2974" x2="59.8181" y2="30.5111" gradientUnits="userSpaceOnUse">
<stop stop-color="#AB2C37"/>
<stop offset="1" stop-color="#FF7A85"/>
</linearGradient>
<linearGradient id="paint4_linear_1_96" x1="49.7026" y1="44.9641" x2="69.5775" y2="44.9641" gradientUnits="userSpaceOnUse">
<stop stop-color="#FF4757"/>
<stop offset="1" stop-color="#FF7A85"/>
</linearGradient>
<linearGradient id="paint5_linear_1_96" x1="57.5669" y1="36.2762" x2="59.802" y2="32.405" gradientUnits="userSpaceOnUse">
<stop stop-color="#C5BAEB"/>
<stop offset="1" stop-color="#D7D1EB"/>
</linearGradient>
<clipPath id="clip0_1_96">
<rect width="70" height="70" fill="white"/>
</clipPath>
</defs>
</svg>
