<svg width="70" height="70" viewBox="0 0 70 70" fill="none" xmlns="http://www.w3.org/2000/svg">
<g id="worldwide 2" clip-path="url(#clip0_103_8)">
<g id="Group">
<g id="Group_2">
<path id="Vector" d="M35.0007 69.9939C51.8784 69.9939 65.5606 56.3117 65.5606 39.4339C65.5606 22.5562 51.8784 8.87402 35.0007 8.87402C18.1229 8.87402 4.44073 22.5562 4.44073 39.4339C4.44073 56.3117 18.1229 69.9939 35.0007 69.9939Z" fill="url(#paint0_radial_103_8)"/>
<g id="Group_3">
<g id="Group_4">
<path id="Vector_2" d="M64.8998 33.1168C62.0483 19.6205 50.6957 10.1041 37.6276 8.98119L31.445 13.7804L29.721 9.74449L32.7861 10.1306C32.8367 9.72863 32.823 9.33352 32.7537 8.95508C31.4033 9.05625 30.0442 9.24656 28.6828 9.53408C26.3025 10.0371 24.0468 10.8057 21.9382 11.8003C22.8725 12.1081 23.4894 13.042 23.3618 14.0546L23.0922 16.1943L26.6645 15.3519C26.8498 16.1797 26.3153 16.9971 25.4827 17.1593L22.6064 17.7194C22.3329 19.8913 20.3503 21.4303 18.1785 21.1567L17.3689 21.0546L17.6166 19.0883C16.669 18.9689 15.8043 19.6403 15.6849 20.5878L15.6533 20.8384L15.152 20.7752C13.1929 20.5285 11.4049 21.9164 11.1582 23.8755L8.96054 23.5988L8.94113 23.7528C8.77488 25.0731 9.71031 26.2782 11.0303 26.4444C10.9177 27.3387 10.1013 27.9724 9.20704 27.8599L6.84003 27.5617C6.54363 28.2629 6.2732 28.976 6.02915 29.6998C6.11638 29.7309 6.20798 29.7538 6.30368 29.7659C6.10449 31.3469 7.22476 32.7901 8.80577 32.9891C9.52437 33.0796 10.1803 32.5704 10.2709 31.8518L10.4238 30.6373C11.8718 30.8197 13.1934 29.7938 13.3757 28.3459L13.4098 28.076L16.0315 28.4062C15.8464 29.8755 16.8875 31.2166 18.3567 31.4016L19.1663 31.5036L19.0207 32.6602L18.5127 32.7213C17.8486 32.8012 17.3998 33.4383 17.548 34.0904L20.4416 33.5051L21.0001 29.0713C21.7355 29.164 22.2705 29.8149 22.2188 30.5545L22.1013 32.2373C22.0187 33.4173 22.537 34.5592 23.4794 35.2738L23.8772 35.5756L25.0735 33.736C26.3717 35.1589 28.3328 35.7768 30.2121 35.3553L30.6391 35.2596L30.946 36.558C31.2142 37.693 30.5149 38.8311 29.3813 39.1044L27.2706 39.6136L22.989 36.366C21.5031 37.5807 19.4313 37.7788 17.7421 36.8677L15.9857 35.9204L16.4391 33.0988L4.94962 34.2954C4.9257 34.7888 4.82562 35.2633 4.66101 35.7075C4.26042 38.9709 4.38251 42.3545 5.10015 45.7513C5.60861 48.1579 6.38913 50.4369 7.3999 52.5656C7.76466 52.57 8.1323 52.5565 8.50199 52.5202L10.4925 52.3247L11.2644 54.1257C12.3326 54.1308 13.1925 55.0041 13.181 56.0723L13.1466 59.2391L14.5399 60.2958L14.9151 62.4673C18.8233 65.8701 23.5672 68.2587 28.6977 69.3429L29.8134 68.4767L30.6547 61.7971L38.4871 55.7171C39.3033 55.0836 38.9461 53.7794 37.9208 53.6502L35.9782 53.4055C34.3391 53.199 32.9507 52.098 32.3764 50.5489L29.5543 42.9376C29.1539 41.8575 29.6753 40.6536 30.7372 40.2067L34.2171 48.6746L33.9403 50.8722C35.0193 51.6906 36.4839 51.7822 37.6564 51.1045L44.8323 46.9567L44.6385 46.6901C43.4725 45.0859 41.2282 44.7275 39.6205 45.889L38.6349 44.6191C37.5182 43.1806 37.7792 41.1091 39.2178 39.9926L40.1804 41.2326C41.8793 43.4211 44.5778 44.5908 47.3364 44.3345L50.1923 48.0136L52.1876 48.265L51.8489 50.9543L53.5422 53.1357L52.9631 57.7333C54.7996 57.9646 56.4759 56.6634 56.7072 54.8268L57.0169 52.3689C58.6139 52.57 60.0716 51.4387 60.2727 49.8415L60.3893 48.9162L63.1653 49.2659L63.0924 49.8442C63.0308 50.3334 63.0649 50.8123 63.1785 51.2632C65.5096 45.7237 66.2364 39.4425 64.8998 33.1168Z" fill="url(#paint1_radial_103_8)"/>
<path id="Vector_3" d="M20.9951 16.0523L21.5045 12.0085C19.2724 13.1049 17.2119 14.4583 15.3514 16.0225C16.1331 16.2599 16.9953 16.2353 17.7971 15.8981L17.9733 15.824L17.6139 18.677C19.2724 18.8859 20.7861 17.7108 20.9951 16.0523Z" fill="url(#paint2_radial_103_8)"/>
</g>
<path id="Vector_4" d="M34.0026 69.4017C33.2676 69.1269 32.5114 69.3534 32.0287 69.8561C33.4268 69.9923 34.8452 70.0311 36.2757 69.9696C36.4258 69.2447 36.3919 68.477 36.1432 67.74L34.0026 69.4017Z" fill="url(#paint3_radial_103_8)"/>
<path id="Vector_5" d="M54.6607 58.946L55.1493 59.5755C55.6054 60.1628 56.4512 60.2695 57.0385 59.8134L56.2971 58.8583L56.8615 58.4202C57.2752 58.0991 57.3501 57.5037 57.0291 57.0901L54.6607 58.946Z" fill="url(#paint4_radial_103_8)"/>
</g>
</g>
<g id="Group_5">
<path id="Vector_6" d="M54.9084 2.38963L51.94 0.675722C50.5109 -0.314669 48.5476 -0.256016 46.3963 1.11555C42.494 3.60342 39.3428 9.68439 39.2173 14.9626C39.1626 17.2586 39.6722 19.0658 40.5705 20.2595L40.5693 20.2614L45.3736 26.4044C45.4601 26.515 45.5587 26.5977 45.6659 26.6552L48.6436 28.3744L54.9084 2.38963Z" fill="url(#paint5_linear_103_8)"/>
<path id="Vector_7" d="M57.2139 8.28975C57.2139 2.58885 53.6513 0.0542226 49.3328 2.8076C45.4304 5.29547 42.2792 11.3764 42.1537 16.6546C42.099 18.9507 42.6087 20.7578 43.5069 21.9514L43.5055 21.9533L48.3098 28.0963C48.9838 28.9582 50.3796 28.1523 51.0536 26.5122L55.8579 14.8216L55.8566 14.8211C56.7111 12.6993 57.2139 10.4282 57.2139 8.28975Z" fill="url(#paint6_linear_103_8)"/>
<path id="Vector_8" d="M55.1811 6.90413L52.9653 5.62854L52.9651 5.62895C52.0904 5.16548 50.9669 5.23151 49.741 5.93917C46.952 7.54944 44.6909 11.8695 44.6909 15.5884C44.6909 17.6329 45.3752 19.0681 46.454 19.6801L46.4532 19.6817L48.4778 20.8507L55.1811 6.90413Z" fill="url(#paint7_linear_103_8)"/>
<path id="Vector_9" d="M55.8731 15.6014C57.5516 11.6621 57.1057 7.69896 54.8771 6.74939C52.6485 5.79982 49.4812 8.22346 47.8028 12.1627C46.1243 16.102 46.5702 20.0652 48.7988 21.0148C51.0274 21.9643 54.1947 19.5407 55.8731 15.6014Z" fill="#F2EFFA"/>
</g>
</g>
</g>
<defs>
<radialGradient id="paint0_radial_103_8" cx="0" cy="0" r="1" gradientUnits="userSpaceOnUse" gradientTransform="translate(39.1662 27.2674) rotate(-11.9506) scale(28.2037 28.2037)">
<stop stop-color="#79D3FE"/>
<stop offset="1" stop-color="#2F97F7"/>
</radialGradient>
<radialGradient id="paint1_radial_103_8" cx="0" cy="0" r="1" gradientUnits="userSpaceOnUse" gradientTransform="translate(37.8312 27.4771) scale(71.3133 71.3133)">
<stop stop-color="#06DAAE"/>
<stop offset="0.2214" stop-color="#0CCDA8"/>
<stop offset="0.6285" stop-color="#1DAB9A"/>
<stop offset="1" stop-color="#2F878A"/>
</radialGradient>
<radialGradient id="paint2_radial_103_8" cx="0" cy="0" r="1" gradientUnits="userSpaceOnUse" gradientTransform="translate(18.7129 14.0612) scale(7.68933 7.68933)">
<stop stop-color="#06DAAE"/>
<stop offset="0.2214" stop-color="#0CCDA8"/>
<stop offset="0.6285" stop-color="#1DAB9A"/>
<stop offset="1" stop-color="#2F878A"/>
</radialGradient>
<radialGradient id="paint3_radial_103_8" cx="0" cy="0" r="1" gradientUnits="userSpaceOnUse" gradientTransform="translate(39.0116 55.217) scale(27.2833 27.2834)">
<stop stop-color="#06DAAE"/>
<stop offset="0.2214" stop-color="#0CCDA8"/>
<stop offset="0.6285" stop-color="#1DAB9A"/>
<stop offset="1" stop-color="#2F878A"/>
</radialGradient>
<radialGradient id="paint4_radial_103_8" cx="0" cy="0" r="1" gradientUnits="userSpaceOnUse" gradientTransform="translate(40.7548 25.083) scale(91.8281 91.8279)">
<stop stop-color="#06DAAE"/>
<stop offset="0.2214" stop-color="#0CCDA8"/>
<stop offset="0.6285" stop-color="#1DAB9A"/>
<stop offset="1" stop-color="#2F878A"/>
</radialGradient>
<linearGradient id="paint5_linear_103_8" x1="46.2963" y1="15.4474" x2="51.5431" y2="6.3594" gradientUnits="userSpaceOnUse">
<stop stop-color="#AB2C37"/>
<stop offset="1" stop-color="#FF7A85"/>
</linearGradient>
<linearGradient id="paint6_linear_103_8" x1="42.1496" y1="19.741" x2="60.606" y2="19.741" gradientUnits="userSpaceOnUse">
<stop stop-color="#FF4757"/>
<stop offset="1" stop-color="#FF7A85"/>
</linearGradient>
<linearGradient id="paint7_linear_103_8" x1="49.4527" y1="11.7132" x2="51.5282" y2="8.11819" gradientUnits="userSpaceOnUse">
<stop stop-color="#C5BAEB"/>
<stop offset="1" stop-color="#D7D1EB"/>
</linearGradient>
<clipPath id="clip0_103_8">
<rect width="70" height="70" fill="white"/>
</clipPath>
</defs>
</svg>
