<svg width="70" height="70" viewBox="0 0 70 70" fill="none" xmlns="http://www.w3.org/2000/svg">
<g id="worldwide 1" clip-path="url(#clip0_1_75)">
<g id="Group">
<g id="Group_2">
<path id="Vector" d="M35.0006 69.9936C51.8784 69.9936 65.5606 56.3115 65.5606 39.4337C65.5606 22.5559 51.8784 8.87378 35.0006 8.87378C18.1228 8.87378 4.4407 22.5559 4.4407 39.4337C4.4407 56.3115 18.1228 69.9936 35.0006 69.9936Z" fill="url(#paint0_radial_1_75)"/>
<g id="Group_3">
<g id="Group_4">
<path id="Vector_2" d="M64.8998 33.1165C62.0483 19.6201 50.6957 10.1037 37.6276 8.98083L31.445 13.7801L29.721 9.74413L32.7861 10.1302C32.8367 9.72827 32.823 9.33315 32.7537 8.95471C31.4033 9.05588 30.0442 9.2462 28.6828 9.53372C26.3025 10.0367 24.0468 10.8053 21.9382 11.8C22.8725 12.1077 23.4894 13.0416 23.3618 14.0542L23.0922 16.194L26.6645 15.3515C26.8498 16.1793 26.3153 16.9968 25.4827 17.1589L22.6064 17.7191C22.3329 19.891 20.3503 21.4299 18.1785 21.1563L17.3689 21.0542L17.6166 19.0879C16.669 18.9685 15.8043 19.64 15.6849 20.5874L15.6533 20.838L15.152 20.7749C13.1929 20.5281 11.4049 21.9161 11.1582 23.8751L8.96054 23.5984L8.94113 23.7525C8.77488 25.0728 9.71031 26.2778 11.0303 26.444C10.9177 27.3383 10.1013 27.972 9.20704 27.8595L6.84003 27.5613C6.54363 28.2625 6.2732 28.9757 6.02915 29.6995C6.11638 29.7305 6.20798 29.7535 6.30368 29.7655C6.10449 31.3465 7.22476 32.7897 8.80577 32.9888C9.52437 33.0793 10.1803 32.57 10.2709 31.8514L10.4238 30.6369C11.8718 30.8193 13.1934 29.7934 13.3757 28.3455L13.4098 28.0756L16.0315 28.4058C15.8464 29.8751 16.8875 31.2162 18.3567 31.4012L19.1663 31.5032L19.0207 32.6598L18.5127 32.7209C17.8486 32.8008 17.3998 33.4379 17.548 34.09L20.4416 33.5047L21.0001 29.071C21.7355 29.1637 22.2705 29.8146 22.2188 30.5541L22.1013 32.237C22.0187 33.417 22.537 34.5589 23.4794 35.2735L23.8772 35.5752L25.0735 33.7357C26.3717 35.1585 28.3328 35.7765 30.2121 35.355L30.6391 35.2593L30.946 36.5577C31.2142 37.6926 30.5149 38.8308 29.3813 39.1041L27.2706 39.6132L22.989 36.3656C21.5031 37.5803 19.4313 37.7784 17.7421 36.8673L15.9857 35.92L16.4391 33.0984L4.94962 34.295C4.9257 34.7884 4.82562 35.263 4.66101 35.7072C4.26042 38.9705 4.38251 42.3541 5.10015 45.7509C5.60861 48.1576 6.38913 50.4365 7.3999 52.5653C7.76466 52.5696 8.1323 52.5561 8.50199 52.5199L10.4925 52.3244L11.2644 54.1254C12.3326 54.1304 13.1925 55.0038 13.181 56.072L13.1466 59.2388L14.5399 60.2955L14.9151 62.467C18.8233 65.8698 23.5672 68.2584 28.6977 69.3426L29.8134 68.4763L30.6547 61.7968L38.4871 55.7168C39.3033 55.0832 38.9461 53.7791 37.9208 53.6499L35.9782 53.4051C34.3391 53.1987 32.9507 52.0977 32.3764 50.5485L29.5543 42.9373C29.1539 41.8572 29.6753 40.6532 30.7372 40.2063L34.2171 48.6742L33.9403 50.8719C35.0193 51.6903 36.4839 51.7819 37.6564 51.1041L44.8323 46.9564L44.6385 46.6898C43.4725 45.0855 41.2282 44.7272 39.6205 45.8886L38.6349 44.6188C37.5182 43.1802 37.7792 41.1088 39.2178 39.9922L40.1804 41.2322C41.8793 43.4207 44.5778 44.5905 47.3364 44.3341L50.1923 48.0132L52.1876 48.2646L51.8489 50.9539L53.5422 53.1354L52.9631 57.733C54.7996 57.9643 56.4759 56.663 56.7072 54.8264L57.0169 52.3685C58.6139 52.5696 60.0716 51.4383 60.2727 49.8411L60.3893 48.9158L63.1653 49.2655L63.0924 49.8439C63.0308 50.3331 63.0649 50.812 63.1785 51.2629C65.5096 45.7233 66.2364 39.4422 64.8998 33.1165Z" fill="url(#paint1_radial_1_75)"/>
<path id="Vector_3" d="M20.9951 16.0519L21.5045 12.0082C19.2724 13.1045 17.2119 14.4579 15.3515 16.0221C16.1331 16.2596 16.9954 16.235 17.7971 15.8977L17.9733 15.8236L17.6139 18.6766C19.2724 18.8855 20.7862 17.7104 20.9951 16.0519Z" fill="url(#paint2_radial_1_75)"/>
</g>
<path id="Vector_4" d="M34.0026 69.4013C33.2676 69.1265 32.5114 69.3531 32.0287 69.8558C33.4267 69.9919 34.8452 70.0308 36.2757 69.9692C36.4258 69.2444 36.3919 68.4767 36.1432 67.7396L34.0026 69.4013Z" fill="url(#paint3_radial_1_75)"/>
<path id="Vector_5" d="M54.6607 58.9457L55.1493 59.5751C55.6054 60.1625 56.4512 60.2691 57.0385 59.813L56.2971 58.8579L56.8615 58.4199C57.2752 58.0987 57.3501 57.5033 57.0291 57.0897L54.6607 58.9457Z" fill="url(#paint4_radial_1_75)"/>
</g>
</g>
<g id="Group_5">
<path id="Vector_6" d="M54.9084 2.38951L51.94 0.6756C50.5109 -0.314791 48.5476 -0.256138 46.3963 1.11542C42.494 3.6033 39.3428 9.68427 39.2173 14.9624C39.1626 17.2585 39.6722 19.0656 40.5705 20.2593L40.5693 20.2612L45.3736 26.4043C45.4601 26.5149 45.5587 26.5976 45.6659 26.655L48.6436 28.3743L54.9084 2.38951Z" fill="url(#paint5_linear_1_75)"/>
<path id="Vector_7" d="M57.2139 8.28963C57.2139 2.58873 53.6513 0.0541005 49.3328 2.80748C45.4304 5.29535 42.2792 11.3763 42.1537 16.6545C42.099 18.9505 42.6087 20.7577 43.5069 21.9512L43.5056 21.9532L48.3099 28.0962C48.9839 28.9581 50.3796 28.1521 51.0537 26.5121L55.858 14.8215L55.8566 14.821C56.7111 12.6992 57.2139 10.428 57.2139 8.28963Z" fill="url(#paint6_linear_1_75)"/>
<path id="Vector_8" d="M55.1811 6.90401L52.9653 5.62842L52.9651 5.62883C52.0904 5.16536 50.9669 5.23139 49.741 5.93905C46.952 7.54932 44.6909 11.8694 44.6909 15.5882C44.6909 17.6327 45.3752 19.068 46.454 19.68L46.4532 19.6816L48.4778 20.8506L55.1811 6.90401Z" fill="url(#paint7_linear_1_75)"/>
<path id="Vector_9" d="M55.8731 15.6012C57.5516 11.6619 57.1057 7.69871 54.8771 6.74915C52.6485 5.79958 49.4812 8.22321 47.8028 12.1625C46.1243 16.1018 46.5702 20.0649 48.7988 21.0145C51.0274 21.9641 54.1947 19.5404 55.8731 15.6012Z" fill="#F2EFFA"/>
</g>
</g>
</g>
<defs>
<radialGradient id="paint0_radial_1_75" cx="0" cy="0" r="1" gradientUnits="userSpaceOnUse" gradientTransform="translate(39.1662 27.2672) rotate(-11.9506) scale(28.2037 28.2037)">
<stop stop-color="#79D3FE"/>
<stop offset="1" stop-color="#2F97F7"/>
</radialGradient>
<radialGradient id="paint1_radial_1_75" cx="0" cy="0" r="1" gradientUnits="userSpaceOnUse" gradientTransform="translate(37.8312 27.4767) scale(71.3133 71.3133)">
<stop stop-color="#06DAAE"/>
<stop offset="0.2214" stop-color="#0CCDA8"/>
<stop offset="0.6285" stop-color="#1DAB9A"/>
<stop offset="1" stop-color="#2F878A"/>
</radialGradient>
<radialGradient id="paint2_radial_1_75" cx="0" cy="0" r="1" gradientUnits="userSpaceOnUse" gradientTransform="translate(18.713 14.0609) scale(7.68933 7.68933)">
<stop stop-color="#06DAAE"/>
<stop offset="0.2214" stop-color="#0CCDA8"/>
<stop offset="0.6285" stop-color="#1DAB9A"/>
<stop offset="1" stop-color="#2F878A"/>
</radialGradient>
<radialGradient id="paint3_radial_1_75" cx="0" cy="0" r="1" gradientUnits="userSpaceOnUse" gradientTransform="translate(39.0116 55.2167) scale(27.2833 27.2834)">
<stop stop-color="#06DAAE"/>
<stop offset="0.2214" stop-color="#0CCDA8"/>
<stop offset="0.6285" stop-color="#1DAB9A"/>
<stop offset="1" stop-color="#2F878A"/>
</radialGradient>
<radialGradient id="paint4_radial_1_75" cx="0" cy="0" r="1" gradientUnits="userSpaceOnUse" gradientTransform="translate(40.7548 25.0826) scale(91.8281 91.8279)">
<stop stop-color="#06DAAE"/>
<stop offset="0.2214" stop-color="#0CCDA8"/>
<stop offset="0.6285" stop-color="#1DAB9A"/>
<stop offset="1" stop-color="#2F878A"/>
</radialGradient>
<linearGradient id="paint5_linear_1_75" x1="46.2963" y1="15.4472" x2="51.5431" y2="6.35928" gradientUnits="userSpaceOnUse">
<stop stop-color="#AB2C37"/>
<stop offset="1" stop-color="#FF7A85"/>
</linearGradient>
<linearGradient id="paint6_linear_1_75" x1="42.1496" y1="19.7409" x2="60.606" y2="19.7409" gradientUnits="userSpaceOnUse">
<stop stop-color="#FF4757"/>
<stop offset="1" stop-color="#FF7A85"/>
</linearGradient>
<linearGradient id="paint7_linear_1_75" x1="49.4527" y1="11.7131" x2="51.5282" y2="8.11807" gradientUnits="userSpaceOnUse">
<stop stop-color="#C5BAEB"/>
<stop offset="1" stop-color="#D7D1EB"/>
</linearGradient>
<clipPath id="clip0_1_75">
<rect width="70" height="70" fill="white"/>
</clipPath>
</defs>
</svg>
